<?xml version="1.0" standalone="no"?>
<!DOCTYPE svg PUBLIC "-//W3C//DTD SVG 20010904//EN"
 "http://www.w3.org/TR/2001/REC-SVG-20010904/DTD/svg10.dtd">
<svg version="1.0" xmlns="http://www.w3.org/2000/svg"
 width="688.000000pt" height="688.000000pt" viewBox="0 0 688.000000 688.000000"
 preserveAspectRatio="xMidYMid meet">
<metadata>
Created by potrace 1.14, written by Peter Selinger 2001-2017
</metadata>
<g transform="translate(0.000000,688.000000) scale(0.100000,-0.100000)"
fill="#000000" stroke="none">
<path d="M650 6703 c-14 -9 -162 -155 -330 -323 -283 -283 -306 -308 -308
-343 -2 -20 3 -47 9 -60 7 -12 154 -164 328 -338 174 -174 326 -327 338 -340
26 -29 37 -78 23 -113 -5 -14 -164 -180 -353 -369 -314 -316 -343 -347 -345
-381 -2 -19 4 -48 12 -63 8 -16 154 -166 324 -335 l309 -308 48 0 49 0 351
350 c193 193 359 351 368 351 9 1 24 2 32 2 8 0 24 -1 34 -2 11 0 168 -150
357 -339 187 -186 349 -344 361 -350 12 -7 38 -12 59 -12 32 0 46 9 121 82
274 268 548 549 558 574 26 63 14 77 -342 434 -307 306 -363 371 -357 408 1 6
2 20 3 29 0 9 158 175 351 368 193 193 351 356 351 363 1 7 2 19 2 27 0 8 -1
25 -2 37 -1 15 -104 126 -313 335 -325 326 -349 345 -412 329 -15 -4 -160
-141 -365 -346 -187 -187 -352 -345 -367 -350 -65 -25 -74 -18 -432 341 -186
186 -351 343 -366 349 -39 14 -68 13 -96 -7z"/>
<path d="M5099 6592 c-23 -12 -52 -47 -96 -117 -35 -55 -66 -107 -70 -115 -4
-8 -26 -44 -48 -80 -23 -36 -45 -72 -48 -80 -4 -8 -39 -64 -77 -125 -39 -60
-73 -118 -77 -127 -3 -10 -9 -18 -14 -18 -5 0 -9 -4 -9 -9 0 -9 -58 -109 -70
-121 -3 -3 -14 -21 -24 -40 -11 -19 -34 -58 -53 -86 -18 -28 -33 -55 -33 -59
0 -5 -6 -16 -14 -24 -13 -15 -138 -217 -214 -346 -20 -33 -39 -61 -44 -63 -4
-2 -8 -8 -8 -12 0 -5 -31 -60 -70 -122 -38 -62 -79 -129 -90 -148 -11 -19 -29
-48 -40 -65 -11 -16 -23 -37 -27 -45 -4 -8 -26 -45 -49 -81 -60 -94 -124 -200
-124 -205 0 -3 -5 -10 -10 -17 -13 -15 -260 -418 -260 -423 0 -8 -55 -89 -62
-92 -5 -2 -8 -8 -8 -13 0 -5 -11 -27 -24 -48 -39 -61 -38 -116 3 -160 21 -22
38 -31 62 -31 19 0 770 -1 1670 -2 1511 -1 1638 0 1660 15 13 10 19 17 14 17
-5 0 0 6 11 14 14 11 19 26 19 63 -1 51 -3 54 -270 483 -39 63 -74 122 -78
130 -4 8 -20 34 -35 57 -15 24 -49 80 -77 125 -27 46 -53 85 -57 86 -4 2 -8 7
-8 12 0 11 -63 114 -72 118 -5 2 -8 9 -8 15 0 7 -20 43 -45 80 -25 38 -45 70
-45 72 0 2 -34 58 -75 124 -41 67 -75 126 -75 131 0 6 -3 10 -7 10 -7 0 -45
56 -48 70 0 3 -12 23 -26 45 -14 22 -47 76 -74 120 -26 44 -60 98 -75 120 -15
22 -29 45 -31 50 -3 9 -45 77 -167 273 -13 20 -25 45 -29 55 -3 9 -9 17 -14
17 -5 0 -9 4 -9 10 0 7 -86 152 -148 246 -6 10 -17 28 -22 39 -6 11 -24 40
-40 65 -16 25 -48 77 -70 116 -23 39 -51 76 -63 83 -41 26 -74 30 -108 13z"/>
<path d="M1436 3282 c-2 -1 -29 -4 -62 -7 -87 -7 -137 -15 -209 -32 -16 -4
-32 -7 -35 -8 -3 -1 -32 -9 -65 -20 -33 -10 -62 -19 -65 -19 -20 -4 -139 -57
-204 -92 -119 -62 -244 -155 -343 -253 -91 -89 -201 -228 -242 -304 -13 -23
-34 -62 -47 -86 -23 -43 -92 -210 -100 -241 -2 -8 -10 -40 -19 -70 -8 -30 -17
-71 -20 -90 -3 -19 -8 -46 -11 -60 -4 -14 -8 -99 -10 -190 -3 -159 10 -295 36
-375 5 -16 11 -42 12 -57 1 -16 6 -28 10 -28 4 0 7 -3 6 -7 -5 -20 30 -110 94
-238 101 -205 282 -419 463 -544 28 -19 52 -38 55 -41 15 -19 234 -126 315
-154 44 -16 87 -31 95 -33 8 -3 22 -7 30 -8 8 -1 35 -7 60 -13 211 -50 466
-47 685 9 44 12 85 22 90 23 11 3 21 7 125 49 41 17 84 36 96 44 11 7 24 10
27 6 4 -3 7 -1 7 5 0 6 9 13 19 17 35 11 193 121 259 180 104 92 179 177 255
287 47 69 124 209 147 270 7 18 19 49 27 68 18 49 62 217 68 265 3 22 8 65 11
95 33 268 -28 583 -161 838 -108 206 -230 351 -436 516 -43 35 -163 107 -234
140 -44 21 -88 42 -99 48 -36 19 -223 74 -286 84 -14 2 -35 6 -46 9 -35 8
-293 23 -298 17z"/>
<path d="M4485 3188 c-40 -23 -634 -627 -640 -650 -3 -12 -4 -34 -1 -48 2 -14
5 -29 5 -34 1 -4 152 -159 336 -343 185 -185 343 -349 351 -365 34 -66 30 -72
-337 -440 -186 -187 -343 -348 -349 -357 -5 -10 -7 -38 -5 -62 5 -43 13 -53
325 -363 l320 -319 51 5 51 5 342 341 c187 188 353 346 368 351 61 23 79 9
438 -351 l341 -341 50 -5 50 -5 227 224 c427 422 447 446 414 514 -8 17 -164
179 -346 361 -311 310 -355 360 -350 392 1 6 2 22 3 34 1 15 117 138 351 373
193 193 351 359 351 368 1 9 2 23 3 30 5 36 -40 88 -327 375 -303 303 -314
312 -356 317 -25 2 -52 0 -62 -5 -9 -5 -170 -162 -357 -349 -360 -359 -370
-367 -433 -341 -16 7 -182 165 -368 351 -187 187 -341 339 -343 340 -50 7 -87
7 -103 -3z"/>
</g>
</svg>
