<svg width="1032" height="480" viewBox="0 0 1032 480" fill="none" xmlns="http://www.w3.org/2000/svg">
<rect width="1032" height="480" fill="#00093C"/>
<g opacity="0.5">
<circle cx="21" cy="20" r="1" fill="#27AAE1"/>
<circle cx="43" cy="20" r="1" fill="#27AAE1"/>
<circle cx="65" cy="20" r="1" fill="#27AAE1"/>
<circle cx="87" cy="20" r="1" fill="#27AAE1"/>
<circle cx="109" cy="20" r="1" fill="#27AAE1"/>
<circle cx="131" cy="20" r="1" fill="#27AAE1"/>
<circle cx="153" cy="20" r="1" fill="#27AAE1"/>
<circle cx="175" cy="20" r="1" fill="#27AAE1"/>
<circle cx="197" cy="20" r="1" fill="#27AAE1"/>
<circle cx="219" cy="20" r="1" fill="#27AAE1"/>
<circle cx="241" cy="20" r="1" fill="#27AAE1"/>
<circle cx="263" cy="20" r="1" fill="#27AAE1"/>
<circle cx="285" cy="20" r="1" fill="#27AAE1"/>
<circle cx="307" cy="20" r="1" fill="#27AAE1"/>
<circle cx="329" cy="20" r="1" fill="#27AAE1"/>
<circle cx="351" cy="20" r="1" fill="#27AAE1"/>
<circle cx="373" cy="20" r="1" fill="#27AAE1"/>
<circle cx="395" cy="20" r="1" fill="#27AAE1"/>
<circle cx="417" cy="20" r="1" fill="#27AAE1"/>
<circle cx="439" cy="20" r="1" fill="#27AAE1"/>
<circle cx="461" cy="20" r="1" fill="#27AAE1"/>
<circle cx="483" cy="20" r="1" fill="#27AAE1"/>
<circle cx="505" cy="20" r="1" fill="#27AAE1"/>
<circle cx="527" cy="20" r="1" fill="#27AAE1"/>
<circle cx="549" cy="20" r="1" fill="#27AAE1"/>
<circle cx="571" cy="20" r="1" fill="#27AAE1"/>
<circle cx="593" cy="20" r="1" fill="#27AAE1"/>
<circle cx="615" cy="20" r="1" fill="#27AAE1"/>
<circle cx="637" cy="20" r="1" fill="#27AAE1"/>
<circle cx="659" cy="20" r="1" fill="#27AAE1"/>
<circle cx="681" cy="20" r="1" fill="#27AAE1"/>
<circle cx="703" cy="20" r="1" fill="#27AAE1"/>
<circle cx="725" cy="20" r="1" fill="#27AAE1"/>
<circle cx="747" cy="20" r="1" fill="#27AAE1"/>
<circle cx="769" cy="20" r="1" fill="#27AAE1"/>
<circle cx="791" cy="20" r="1" fill="#27AAE1"/>
<circle cx="813" cy="20" r="1" fill="#27AAE1"/>
<circle cx="835" cy="20" r="1" fill="#27AAE1"/>
<circle cx="857" cy="20" r="1" fill="#27AAE1"/>
<circle cx="879" cy="20" r="1" fill="#27AAE1"/>
<circle cx="901" cy="20" r="1" fill="#27AAE1"/>
<circle cx="923" cy="20" r="1" fill="#27AAE1"/>
<circle cx="945" cy="20" r="1" fill="#27AAE1"/>
<circle cx="967" cy="20" r="1" fill="#27AAE1"/>
<circle cx="989" cy="20" r="1" fill="#27AAE1"/>
<circle cx="1011" cy="20" r="1" fill="#27AAE1"/>
<circle cx="21" cy="42" r="1" fill="#27AAE1"/>
<circle cx="43" cy="42" r="1" fill="#27AAE1"/>
<circle cx="65" cy="42" r="1" fill="#27AAE1"/>
<circle cx="87" cy="42" r="1" fill="#27AAE1"/>
<circle cx="109" cy="42" r="1" fill="#27AAE1"/>
<circle cx="131" cy="42" r="1" fill="#27AAE1"/>
<circle cx="153" cy="42" r="1" fill="#27AAE1"/>
<circle cx="175" cy="42" r="1" fill="#27AAE1"/>
<circle cx="197" cy="42" r="1" fill="#27AAE1"/>
<circle cx="219" cy="42" r="1" fill="#27AAE1"/>
<circle cx="241" cy="42" r="1" fill="#27AAE1"/>
<circle cx="263" cy="42" r="1" fill="#27AAE1"/>
<circle cx="285" cy="42" r="1" fill="#27AAE1"/>
<circle cx="307" cy="42" r="1" fill="#27AAE1"/>
<circle cx="329" cy="42" r="1" fill="#27AAE1"/>
<circle cx="351" cy="42" r="1" fill="#27AAE1"/>
<circle cx="373" cy="42" r="1" fill="#27AAE1"/>
<circle cx="395" cy="42" r="1" fill="#27AAE1"/>
<circle cx="417" cy="42" r="1" fill="#27AAE1"/>
<circle cx="439" cy="42" r="1" fill="#27AAE1"/>
<circle cx="461" cy="42" r="1" fill="#27AAE1"/>
<circle cx="483" cy="42" r="1" fill="#27AAE1"/>
<circle cx="505" cy="42" r="1" fill="#27AAE1"/>
<circle cx="527" cy="42" r="1" fill="#27AAE1"/>
<circle cx="549" cy="42" r="1" fill="#27AAE1"/>
<circle cx="571" cy="42" r="1" fill="#27AAE1"/>
<circle cx="593" cy="42" r="1" fill="#27AAE1"/>
<circle cx="615" cy="42" r="1" fill="#27AAE1"/>
<circle cx="637" cy="42" r="1" fill="#27AAE1"/>
<circle cx="659" cy="42" r="1" fill="#27AAE1"/>
<circle cx="681" cy="42" r="1" fill="#27AAE1"/>
<circle cx="703" cy="42" r="1" fill="#27AAE1"/>
<circle cx="725" cy="42" r="1" fill="#27AAE1"/>
<circle cx="747" cy="42" r="1" fill="#27AAE1"/>
<circle cx="769" cy="42" r="1" fill="#27AAE1"/>
<circle cx="791" cy="42" r="1" fill="#27AAE1"/>
<circle cx="813" cy="42" r="1" fill="#27AAE1"/>
<circle cx="835" cy="42" r="1" fill="#27AAE1"/>
<circle cx="857" cy="42" r="1" fill="#27AAE1"/>
<circle cx="879" cy="42" r="1" fill="#27AAE1"/>
<circle cx="901" cy="42" r="1" fill="#27AAE1"/>
<circle cx="923" cy="42" r="1" fill="#27AAE1"/>
<circle cx="945" cy="42" r="1" fill="#27AAE1"/>
<circle cx="967" cy="42" r="1" fill="#27AAE1"/>
<circle cx="989" cy="42" r="1" fill="#27AAE1"/>
<circle cx="1011" cy="42" r="1" fill="#27AAE1"/>
<circle cx="21" cy="64" r="1" fill="#27AAE1"/>
<circle cx="43" cy="64" r="1" fill="#27AAE1"/>
<circle cx="65" cy="64" r="1" fill="#27AAE1"/>
<circle cx="87" cy="64" r="1" fill="#27AAE1"/>
<circle cx="109" cy="64" r="1" fill="#27AAE1"/>
<circle cx="131" cy="64" r="1" fill="#27AAE1"/>
<circle cx="153" cy="64" r="1" fill="#27AAE1"/>
<circle cx="175" cy="64" r="1" fill="#27AAE1"/>
<circle cx="197" cy="64" r="1" fill="#27AAE1"/>
<circle cx="219" cy="64" r="1" fill="#27AAE1"/>
<circle cx="241" cy="64" r="1" fill="#27AAE1"/>
<circle cx="263" cy="64" r="1" fill="#27AAE1"/>
<circle cx="285" cy="64" r="1" fill="#27AAE1"/>
<circle cx="307" cy="64" r="1" fill="#27AAE1"/>
<circle cx="329" cy="64" r="1" fill="#27AAE1"/>
<circle cx="351" cy="64" r="1" fill="#27AAE1"/>
<circle cx="373" cy="64" r="1" fill="#27AAE1"/>
<circle cx="395" cy="64" r="1" fill="#27AAE1"/>
<circle cx="417" cy="64" r="1" fill="#27AAE1"/>
<circle cx="439" cy="64" r="1" fill="#27AAE1"/>
<circle cx="461" cy="64" r="1" fill="#27AAE1"/>
<circle cx="483" cy="64" r="1" fill="#27AAE1"/>
<circle cx="505" cy="64" r="1" fill="#27AAE1"/>
<circle cx="527" cy="64" r="1" fill="#27AAE1"/>
<circle cx="549" cy="64" r="1" fill="#27AAE1"/>
<circle cx="571" cy="64" r="1" fill="#27AAE1"/>
<circle cx="593" cy="64" r="1" fill="#27AAE1"/>
<circle cx="615" cy="64" r="1" fill="#27AAE1"/>
<circle cx="637" cy="64" r="1" fill="#27AAE1"/>
<circle cx="659" cy="64" r="1" fill="#27AAE1"/>
<circle cx="681" cy="64" r="1" fill="#27AAE1"/>
<circle cx="703" cy="64" r="1" fill="#27AAE1"/>
<circle cx="725" cy="64" r="1" fill="#27AAE1"/>
<circle cx="747" cy="64" r="1" fill="#27AAE1"/>
<circle cx="769" cy="64" r="1" fill="#27AAE1"/>
<circle cx="791" cy="64" r="1" fill="#27AAE1"/>
<circle cx="813" cy="64" r="1" fill="#27AAE1"/>
<circle cx="835" cy="64" r="1" fill="#27AAE1"/>
<circle cx="857" cy="64" r="1" fill="#27AAE1"/>
<circle cx="879" cy="64" r="1" fill="#27AAE1"/>
<circle cx="901" cy="64" r="1" fill="#27AAE1"/>
<circle cx="923" cy="64" r="1" fill="#27AAE1"/>
<circle cx="945" cy="64" r="1" fill="#27AAE1"/>
<circle cx="967" cy="64" r="1" fill="#27AAE1"/>
<circle cx="989" cy="64" r="1" fill="#27AAE1"/>
<circle cx="1011" cy="64" r="1" fill="#27AAE1"/>
<circle cx="21" cy="86" r="1" fill="#27AAE1"/>
<circle cx="43" cy="86" r="1" fill="#27AAE1"/>
<circle cx="65" cy="86" r="1" fill="#27AAE1"/>
<circle cx="87" cy="86" r="1" fill="#27AAE1"/>
<circle cx="109" cy="86" r="1" fill="#27AAE1"/>
<circle cx="131" cy="86" r="1" fill="#27AAE1"/>
<circle cx="153" cy="86" r="1" fill="#27AAE1"/>
<circle cx="175" cy="86" r="1" fill="#27AAE1"/>
<circle cx="197" cy="86" r="1" fill="#27AAE1"/>
<circle cx="219" cy="86" r="1" fill="#27AAE1"/>
<circle cx="241" cy="86" r="1" fill="#27AAE1"/>
<circle cx="263" cy="86" r="1" fill="#27AAE1"/>
<circle cx="285" cy="86" r="1" fill="#27AAE1"/>
<circle cx="307" cy="86" r="1" fill="#27AAE1"/>
<circle cx="329" cy="86" r="1" fill="#27AAE1"/>
<circle cx="351" cy="86" r="1" fill="#27AAE1"/>
<circle cx="373" cy="86" r="1" fill="#27AAE1"/>
<circle cx="395" cy="86" r="1" fill="#27AAE1"/>
<circle cx="417" cy="86" r="1" fill="#27AAE1"/>
<circle cx="439" cy="86" r="1" fill="#27AAE1"/>
<circle cx="461" cy="86" r="1" fill="#27AAE1"/>
<circle cx="483" cy="86" r="1" fill="#27AAE1"/>
<circle cx="505" cy="86" r="1" fill="#27AAE1"/>
<circle cx="527" cy="86" r="1" fill="#27AAE1"/>
<circle cx="549" cy="86" r="1" fill="#27AAE1"/>
<circle cx="571" cy="86" r="1" fill="#27AAE1"/>
<circle cx="593" cy="86" r="1" fill="#27AAE1"/>
<circle cx="615" cy="86" r="1" fill="#27AAE1"/>
<circle cx="637" cy="86" r="1" fill="#27AAE1"/>
<circle cx="659" cy="86" r="1" fill="#27AAE1"/>
<circle cx="681" cy="86" r="1" fill="#27AAE1"/>
<circle cx="703" cy="86" r="1" fill="#27AAE1"/>
<circle cx="725" cy="86" r="1" fill="#27AAE1"/>
<circle cx="747" cy="86" r="1" fill="#27AAE1"/>
<circle cx="769" cy="86" r="1" fill="#27AAE1"/>
<circle cx="791" cy="86" r="1" fill="#27AAE1"/>
<circle cx="813" cy="86" r="1" fill="#27AAE1"/>
<circle cx="835" cy="86" r="1" fill="#27AAE1"/>
<circle cx="857" cy="86" r="1" fill="#27AAE1"/>
<circle cx="879" cy="86" r="1" fill="#27AAE1"/>
<circle cx="901" cy="86" r="1" fill="#27AAE1"/>
<circle cx="923" cy="86" r="1" fill="#27AAE1"/>
<circle cx="945" cy="86" r="1" fill="#27AAE1"/>
<circle cx="967" cy="86" r="1" fill="#27AAE1"/>
<circle cx="989" cy="86" r="1" fill="#27AAE1"/>
<circle cx="1011" cy="86" r="1" fill="#27AAE1"/>
<circle cx="21" cy="108" r="1" fill="#27AAE1"/>
<circle cx="43" cy="108" r="1" fill="#27AAE1"/>
<circle cx="65" cy="108" r="1" fill="#27AAE1"/>
<circle cx="87" cy="108" r="1" fill="#27AAE1"/>
<circle cx="109" cy="108" r="1" fill="#27AAE1"/>
<circle cx="131" cy="108" r="1" fill="#27AAE1"/>
<circle cx="153" cy="108" r="1" fill="#27AAE1"/>
<circle cx="175" cy="108" r="1" fill="#27AAE1"/>
<circle cx="197" cy="108" r="1" fill="#27AAE1"/>
<circle cx="219" cy="108" r="1" fill="#27AAE1"/>
<circle cx="241" cy="108" r="1" fill="#27AAE1"/>
<circle cx="263" cy="108" r="1" fill="#27AAE1"/>
<circle cx="285" cy="108" r="1" fill="#27AAE1"/>
<circle cx="307" cy="108" r="1" fill="#27AAE1"/>
<circle cx="329" cy="108" r="1" fill="#27AAE1"/>
<circle cx="351" cy="108" r="1" fill="#27AAE1"/>
<circle cx="373" cy="108" r="1" fill="#27AAE1"/>
<circle cx="395" cy="108" r="1" fill="#27AAE1"/>
<circle cx="417" cy="108" r="1" fill="#27AAE1"/>
<circle cx="439" cy="108" r="1" fill="#27AAE1"/>
<circle cx="461" cy="108" r="1" fill="#27AAE1"/>
<circle cx="483" cy="108" r="1" fill="#27AAE1"/>
<circle cx="505" cy="108" r="1" fill="#27AAE1"/>
<circle cx="527" cy="108" r="1" fill="#27AAE1"/>
<circle cx="549" cy="108" r="1" fill="#27AAE1"/>
<circle cx="571" cy="108" r="1" fill="#27AAE1"/>
<circle cx="593" cy="108" r="1" fill="#27AAE1"/>
<circle cx="615" cy="108" r="1" fill="#27AAE1"/>
<circle cx="637" cy="108" r="1" fill="#27AAE1"/>
<circle cx="659" cy="108" r="1" fill="#27AAE1"/>
<circle cx="681" cy="108" r="1" fill="#27AAE1"/>
<circle cx="703" cy="108" r="1" fill="#27AAE1"/>
<circle cx="725" cy="108" r="1" fill="#27AAE1"/>
<circle cx="747" cy="108" r="1" fill="#27AAE1"/>
<circle cx="769" cy="108" r="1" fill="#27AAE1"/>
<circle cx="791" cy="108" r="1" fill="#27AAE1"/>
<circle cx="813" cy="108" r="1" fill="#27AAE1"/>
<circle cx="835" cy="108" r="1" fill="#27AAE1"/>
<circle cx="857" cy="108" r="1" fill="#27AAE1"/>
<circle cx="879" cy="108" r="1" fill="#27AAE1"/>
<circle cx="901" cy="108" r="1" fill="#27AAE1"/>
<circle cx="923" cy="108" r="1" fill="#27AAE1"/>
<circle cx="945" cy="108" r="1" fill="#27AAE1"/>
<circle cx="967" cy="108" r="1" fill="#27AAE1"/>
<circle cx="989" cy="108" r="1" fill="#27AAE1"/>
<circle cx="1011" cy="108" r="1" fill="#27AAE1"/>
<circle cx="21" cy="130" r="1" fill="#27AAE1"/>
<circle cx="43" cy="130" r="1" fill="#27AAE1"/>
<circle cx="65" cy="130" r="1" fill="#27AAE1"/>
<circle cx="87" cy="130" r="1" fill="#27AAE1"/>
<circle cx="109" cy="130" r="1" fill="#27AAE1"/>
<circle cx="131" cy="130" r="1" fill="#27AAE1"/>
<circle cx="153" cy="130" r="1" fill="#27AAE1"/>
<circle cx="175" cy="130" r="1" fill="#27AAE1"/>
<circle cx="197" cy="130" r="1" fill="#27AAE1"/>
<circle cx="219" cy="130" r="1" fill="#27AAE1"/>
<circle cx="241" cy="130" r="1" fill="#27AAE1"/>
<circle cx="263" cy="130" r="1" fill="#27AAE1"/>
<circle cx="285" cy="130" r="1" fill="#27AAE1"/>
<circle cx="307" cy="130" r="1" fill="#27AAE1"/>
<circle cx="329" cy="130" r="1" fill="#27AAE1"/>
<circle cx="945" cy="130" r="1" fill="#27AAE1"/>
<circle cx="967" cy="130" r="1" fill="#27AAE1"/>
<circle cx="989" cy="130" r="1" fill="#27AAE1"/>
<circle cx="1011" cy="130" r="1" fill="#27AAE1"/>
<circle cx="21" cy="152" r="1" fill="#27AAE1"/>
<circle cx="43" cy="152" r="1" fill="#27AAE1"/>
<circle cx="65" cy="152" r="1" fill="#27AAE1"/>
<circle cx="87" cy="152" r="1" fill="#27AAE1"/>
<circle cx="109" cy="152" r="1" fill="#27AAE1"/>
<circle cx="131" cy="152" r="1" fill="#27AAE1"/>
<circle cx="153" cy="152" r="1" fill="#27AAE1"/>
<circle cx="175" cy="152" r="1" fill="#27AAE1"/>
<circle cx="197" cy="152" r="1" fill="#27AAE1"/>
<circle cx="219" cy="152" r="1" fill="#27AAE1"/>
<circle cx="241" cy="152" r="1" fill="#27AAE1"/>
<circle cx="263" cy="152" r="1" fill="#27AAE1"/>
<circle cx="285" cy="152" r="1" fill="#27AAE1"/>
<circle cx="307" cy="152" r="1" fill="#27AAE1"/>
<circle cx="329" cy="152" r="1" fill="#27AAE1"/>
<circle cx="945" cy="152" r="1" fill="#27AAE1"/>
<circle cx="967" cy="152" r="1" fill="#27AAE1"/>
<circle cx="989" cy="152" r="1" fill="#27AAE1"/>
<circle cx="1011" cy="152" r="1" fill="#27AAE1"/>
<circle cx="21" cy="174" r="1" fill="#27AAE1"/>
<circle cx="43" cy="174" r="1" fill="#27AAE1"/>
<circle cx="65" cy="174" r="1" fill="#27AAE1"/>
<circle cx="87" cy="174" r="1" fill="#27AAE1"/>
<circle cx="109" cy="174" r="1" fill="#27AAE1"/>
<circle cx="131" cy="174" r="1" fill="#27AAE1"/>
<circle cx="153" cy="174" r="1" fill="#27AAE1"/>
<circle cx="175" cy="174" r="1" fill="#27AAE1"/>
<circle cx="197" cy="174" r="1" fill="#27AAE1"/>
<circle cx="219" cy="174" r="1" fill="#27AAE1"/>
<circle cx="241" cy="174" r="1" fill="#27AAE1"/>
<circle cx="263" cy="174" r="1" fill="#27AAE1"/>
<circle cx="285" cy="174" r="1" fill="#27AAE1"/>
<circle cx="307" cy="174" r="1" fill="#27AAE1"/>
<circle cx="329" cy="174" r="1" fill="#27AAE1"/>
<circle cx="945" cy="174" r="1" fill="#27AAE1"/>
<circle cx="967" cy="174" r="1" fill="#27AAE1"/>
<circle cx="989" cy="174" r="1" fill="#27AAE1"/>
<circle cx="1011" cy="174" r="1" fill="#27AAE1"/>
<circle cx="21" cy="196" r="1" fill="#27AAE1"/>
<circle cx="43" cy="196" r="1" fill="#27AAE1"/>
<circle cx="65" cy="196" r="1" fill="#27AAE1"/>
<circle cx="87" cy="196" r="1" fill="#27AAE1"/>
<circle cx="109" cy="196" r="1" fill="#27AAE1"/>
<circle cx="131" cy="196" r="1" fill="#27AAE1"/>
<circle cx="153" cy="196" r="1" fill="#27AAE1"/>
<circle cx="175" cy="196" r="1" fill="#27AAE1"/>
<circle cx="197" cy="196" r="1" fill="#27AAE1"/>
<circle cx="219" cy="196" r="1" fill="#27AAE1"/>
<circle cx="241" cy="196" r="1" fill="#27AAE1"/>
<circle cx="263" cy="196" r="1" fill="#27AAE1"/>
<circle cx="285" cy="196" r="1" fill="#27AAE1"/>
<circle cx="307" cy="196" r="1" fill="#27AAE1"/>
<circle cx="329" cy="196" r="1" fill="#27AAE1"/>
<circle cx="791" cy="196" r="1" fill="#27AAE1"/>
<circle cx="813" cy="196" r="1" fill="#27AAE1"/>
<circle cx="835" cy="196" r="1" fill="#27AAE1"/>
<circle cx="857" cy="196" r="1" fill="#27AAE1"/>
<circle cx="879" cy="196" r="1" fill="#27AAE1"/>
<circle cx="901" cy="196" r="1" fill="#27AAE1"/>
<circle cx="923" cy="196" r="1" fill="#27AAE1"/>
<circle cx="945" cy="196" r="1" fill="#27AAE1"/>
<circle cx="967" cy="196" r="1" fill="#27AAE1"/>
<circle cx="989" cy="196" r="1" fill="#27AAE1"/>
<circle cx="1011" cy="196" r="1" fill="#27AAE1"/>
<circle cx="21" cy="218" r="1" fill="#27AAE1"/>
<circle cx="43" cy="218" r="1" fill="#27AAE1"/>
<circle cx="65" cy="218" r="1" fill="#27AAE1"/>
<circle cx="87" cy="218" r="1" fill="#27AAE1"/>
<circle cx="109" cy="218" r="1" fill="#27AAE1"/>
<circle cx="131" cy="218" r="1" fill="#27AAE1"/>
<circle cx="153" cy="218" r="1" fill="#27AAE1"/>
<circle cx="175" cy="218" r="1" fill="#27AAE1"/>
<circle cx="197" cy="218" r="1" fill="#27AAE1"/>
<circle cx="219" cy="218" r="1" fill="#27AAE1"/>
<circle cx="241" cy="218" r="1" fill="#27AAE1"/>
<circle cx="263" cy="218" r="1" fill="#27AAE1"/>
<circle cx="285" cy="218" r="1" fill="#27AAE1"/>
<circle cx="307" cy="218" r="1" fill="#27AAE1"/>
<circle cx="329" cy="218" r="1" fill="#27AAE1"/>
<circle cx="791" cy="218" r="1" fill="#27AAE1"/>
<circle cx="813" cy="218" r="1" fill="#27AAE1"/>
<circle cx="835" cy="218" r="1" fill="#27AAE1"/>
<circle cx="857" cy="218" r="1" fill="#27AAE1"/>
<circle cx="879" cy="218" r="1" fill="#27AAE1"/>
<circle cx="901" cy="218" r="1" fill="#27AAE1"/>
<circle cx="923" cy="218" r="1" fill="#27AAE1"/>
<circle cx="945" cy="218" r="1" fill="#27AAE1"/>
<circle cx="967" cy="218" r="1" fill="#27AAE1"/>
<circle cx="989" cy="218" r="1" fill="#27AAE1"/>
<circle cx="1011" cy="218" r="1" fill="#27AAE1"/>
<circle cx="21" cy="240" r="1" fill="#27AAE1"/>
<circle cx="43" cy="240" r="1" fill="#27AAE1"/>
<circle cx="65" cy="240" r="1" fill="#27AAE1"/>
<circle cx="87" cy="240" r="1" fill="#27AAE1"/>
<circle cx="109" cy="240" r="1" fill="#27AAE1"/>
<circle cx="131" cy="240" r="1" fill="#27AAE1"/>
<circle cx="153" cy="240" r="1" fill="#27AAE1"/>
<circle cx="175" cy="240" r="1" fill="#27AAE1"/>
<circle cx="197" cy="240" r="1" fill="#27AAE1"/>
<circle cx="219" cy="240" r="1" fill="#27AAE1"/>
<circle cx="241" cy="240" r="1" fill="#27AAE1"/>
<circle cx="263" cy="240" r="1" fill="#27AAE1"/>
<circle cx="285" cy="240" r="1" fill="#27AAE1"/>
<circle cx="307" cy="240" r="1" fill="#27AAE1"/>
<circle cx="329" cy="240" r="1" fill="#27AAE1"/>
<circle cx="791" cy="240" r="1" fill="#27AAE1"/>
<circle cx="813" cy="240" r="1" fill="#27AAE1"/>
<circle cx="835" cy="240" r="1" fill="#27AAE1"/>
<circle cx="857" cy="240" r="1" fill="#27AAE1"/>
<circle cx="879" cy="240" r="1" fill="#27AAE1"/>
<circle cx="901" cy="240" r="1" fill="#27AAE1"/>
<circle cx="923" cy="240" r="1" fill="#27AAE1"/>
<circle cx="945" cy="240" r="1" fill="#27AAE1"/>
<circle cx="967" cy="240" r="1" fill="#27AAE1"/>
<circle cx="989" cy="240" r="1" fill="#27AAE1"/>
<circle cx="1011" cy="240" r="1" fill="#27AAE1"/>
<circle cx="21" cy="262" r="1" fill="#27AAE1"/>
<circle cx="43" cy="262" r="1" fill="#27AAE1"/>
<circle cx="65" cy="262" r="1" fill="#27AAE1"/>
<circle cx="87" cy="262" r="1" fill="#27AAE1"/>
<circle cx="109" cy="262" r="1" fill="#27AAE1"/>
<circle cx="131" cy="262" r="1" fill="#27AAE1"/>
<circle cx="153" cy="262" r="1" fill="#27AAE1"/>
<circle cx="175" cy="262" r="1" fill="#27AAE1"/>
<circle cx="197" cy="262" r="1" fill="#27AAE1"/>
<circle cx="219" cy="262" r="1" fill="#27AAE1"/>
<circle cx="241" cy="262" r="1" fill="#27AAE1"/>
<circle cx="263" cy="262" r="1" fill="#27AAE1"/>
<circle cx="285" cy="262" r="1" fill="#27AAE1"/>
<circle cx="307" cy="262" r="1" fill="#27AAE1"/>
<circle cx="329" cy="262" r="1" fill="#27AAE1"/>
<circle cx="351" cy="262" r="1" fill="#27AAE1"/>
<circle cx="373" cy="262" r="1" fill="#27AAE1"/>
<circle cx="395" cy="262" r="1" fill="#27AAE1"/>
<circle cx="417" cy="262" r="1" fill="#27AAE1"/>
<circle cx="439" cy="262" r="1" fill="#27AAE1"/>
<circle cx="461" cy="262" r="1" fill="#27AAE1"/>
<circle cx="483" cy="262" r="1" fill="#27AAE1"/>
<circle cx="505" cy="262" r="1" fill="#27AAE1"/>
<circle cx="527" cy="262" r="1" fill="#27AAE1"/>
<circle cx="549" cy="262" r="1" fill="#27AAE1"/>
<circle cx="571" cy="262" r="1" fill="#27AAE1"/>
<circle cx="593" cy="262" r="1" fill="#27AAE1"/>
<circle cx="615" cy="262" r="1" fill="#27AAE1"/>
<circle cx="637" cy="262" r="1" fill="#27AAE1"/>
<circle cx="659" cy="262" r="1" fill="#27AAE1"/>
<circle cx="681" cy="262" r="1" fill="#27AAE1"/>
<circle cx="703" cy="262" r="1" fill="#27AAE1"/>
<circle cx="725" cy="262" r="1" fill="#27AAE1"/>
<circle cx="747" cy="262" r="1" fill="#27AAE1"/>
<circle cx="769" cy="262" r="1" fill="#27AAE1"/>
<circle cx="791" cy="262" r="1" fill="#27AAE1"/>
<circle cx="813" cy="262" r="1" fill="#27AAE1"/>
<circle cx="835" cy="262" r="1" fill="#27AAE1"/>
<circle cx="857" cy="262" r="1" fill="#27AAE1"/>
<circle cx="879" cy="262" r="1" fill="#27AAE1"/>
<circle cx="901" cy="262" r="1" fill="#27AAE1"/>
<circle cx="923" cy="262" r="1" fill="#27AAE1"/>
<circle cx="945" cy="262" r="1" fill="#27AAE1"/>
<circle cx="967" cy="262" r="1" fill="#27AAE1"/>
<circle cx="989" cy="262" r="1" fill="#27AAE1"/>
<circle cx="1011" cy="262" r="1" fill="#27AAE1"/>
<circle cx="21" cy="284" r="1" fill="#27AAE1"/>
<circle cx="43" cy="284" r="1" fill="#27AAE1"/>
<circle cx="65" cy="284" r="1" fill="#27AAE1"/>
<circle cx="87" cy="284" r="1" fill="#27AAE1"/>
<circle cx="109" cy="284" r="1" fill="#27AAE1"/>
<circle cx="131" cy="284" r="1" fill="#27AAE1"/>
<circle cx="153" cy="284" r="1" fill="#27AAE1"/>
<circle cx="175" cy="284" r="1" fill="#27AAE1"/>
<circle cx="197" cy="284" r="1" fill="#27AAE1"/>
<circle cx="219" cy="284" r="1" fill="#27AAE1"/>
<circle cx="241" cy="284" r="1" fill="#27AAE1"/>
<circle cx="263" cy="284" r="1" fill="#27AAE1"/>
<circle cx="285" cy="284" r="1" fill="#27AAE1"/>
<circle cx="307" cy="284" r="1" fill="#27AAE1"/>
<circle cx="945" cy="284" r="1" fill="#27AAE1"/>
<circle cx="967" cy="284" r="1" fill="#27AAE1"/>
<circle cx="989" cy="284" r="1" fill="#27AAE1"/>
<circle cx="1011" cy="284" r="1" fill="#27AAE1"/>
<circle cx="21" cy="306" r="1" fill="#27AAE1"/>
<circle cx="43" cy="306" r="1" fill="#27AAE1"/>
<circle cx="65" cy="306" r="1" fill="#27AAE1"/>
<circle cx="87" cy="306" r="1" fill="#27AAE1"/>
<circle cx="109" cy="306" r="1" fill="#27AAE1"/>
<circle cx="131" cy="306" r="1" fill="#27AAE1"/>
<circle cx="153" cy="306" r="1" fill="#27AAE1"/>
<circle cx="175" cy="306" r="1" fill="#27AAE1"/>
<circle cx="197" cy="306" r="1" fill="#27AAE1"/>
<circle cx="219" cy="306" r="1" fill="#27AAE1"/>
<circle cx="241" cy="306" r="1" fill="#27AAE1"/>
<circle cx="263" cy="306" r="1" fill="#27AAE1"/>
<circle cx="285" cy="306" r="1" fill="#27AAE1"/>
<circle cx="307" cy="306" r="1" fill="#27AAE1"/>
<circle cx="945" cy="306" r="1" fill="#27AAE1"/>
<circle cx="967" cy="306" r="1" fill="#27AAE1"/>
<circle cx="989" cy="306" r="1" fill="#27AAE1"/>
<circle cx="1011" cy="306" r="1" fill="#27AAE1"/>
<circle cx="21" cy="328" r="1" fill="#27AAE1"/>
<circle cx="43" cy="328" r="1" fill="#27AAE1"/>
<circle cx="65" cy="328" r="1" fill="#27AAE1"/>
<circle cx="87" cy="328" r="1" fill="#27AAE1"/>
<circle cx="109" cy="328" r="1" fill="#27AAE1"/>
<circle cx="131" cy="328" r="1" fill="#27AAE1"/>
<circle cx="153" cy="328" r="1" fill="#27AAE1"/>
<circle cx="175" cy="328" r="1" fill="#27AAE1"/>
<circle cx="197" cy="328" r="1" fill="#27AAE1"/>
<circle cx="219" cy="328" r="1" fill="#27AAE1"/>
<circle cx="241" cy="328" r="1" fill="#27AAE1"/>
<circle cx="263" cy="328" r="1" fill="#27AAE1"/>
<circle cx="285" cy="328" r="1" fill="#27AAE1"/>
<circle cx="307" cy="328" r="1" fill="#27AAE1"/>
<circle cx="329" cy="328" r="1" fill="#27AAE1"/>
<circle cx="351" cy="328" r="1" fill="#27AAE1"/>
<circle cx="373" cy="328" r="1" fill="#27AAE1"/>
<circle cx="395" cy="328" r="1" fill="#27AAE1"/>
<circle cx="417" cy="328" r="1" fill="#27AAE1"/>
<circle cx="439" cy="328" r="1" fill="#27AAE1"/>
<circle cx="461" cy="328" r="1" fill="#27AAE1"/>
<circle cx="483" cy="328" r="1" fill="#27AAE1"/>
<circle cx="505" cy="328" r="1" fill="#27AAE1"/>
<circle cx="527" cy="328" r="1" fill="#27AAE1"/>
<circle cx="549" cy="328" r="1" fill="#27AAE1"/>
<circle cx="571" cy="328" r="1" fill="#27AAE1"/>
<circle cx="593" cy="328" r="1" fill="#27AAE1"/>
<circle cx="615" cy="328" r="1" fill="#27AAE1"/>
<circle cx="637" cy="328" r="1" fill="#27AAE1"/>
<circle cx="659" cy="328" r="1" fill="#27AAE1"/>
<circle cx="681" cy="328" r="1" fill="#27AAE1"/>
<circle cx="703" cy="328" r="1" fill="#27AAE1"/>
<circle cx="725" cy="328" r="1" fill="#27AAE1"/>
<circle cx="747" cy="328" r="1" fill="#27AAE1"/>
<circle cx="769" cy="328" r="1" fill="#27AAE1"/>
<circle cx="791" cy="328" r="1" fill="#27AAE1"/>
<circle cx="813" cy="328" r="1" fill="#27AAE1"/>
<circle cx="835" cy="328" r="1" fill="#27AAE1"/>
<circle cx="857" cy="328" r="1" fill="#27AAE1"/>
<circle cx="879" cy="328" r="1" fill="#27AAE1"/>
<circle cx="901" cy="328" r="1" fill="#27AAE1"/>
<circle cx="923" cy="328" r="1" fill="#27AAE1"/>
<circle cx="945" cy="328" r="1" fill="#27AAE1"/>
<circle cx="967" cy="328" r="1" fill="#27AAE1"/>
<circle cx="989" cy="328" r="1" fill="#27AAE1"/>
<circle cx="1011" cy="328" r="1" fill="#27AAE1"/>
<circle cx="21" cy="350" r="1" fill="#27AAE1"/>
<circle cx="43" cy="350" r="1" fill="#27AAE1"/>
<circle cx="65" cy="350" r="1" fill="#27AAE1"/>
<circle cx="87" cy="350" r="1" fill="#27AAE1"/>
<circle cx="109" cy="350" r="1" fill="#27AAE1"/>
<circle cx="131" cy="350" r="1" fill="#27AAE1"/>
<circle cx="153" cy="350" r="1" fill="#27AAE1"/>
<circle cx="175" cy="350" r="1" fill="#27AAE1"/>
<circle cx="197" cy="350" r="1" fill="#27AAE1"/>
<circle cx="219" cy="350" r="1" fill="#27AAE1"/>
<circle cx="241" cy="350" r="1" fill="#27AAE1"/>
<circle cx="263" cy="350" r="1" fill="#27AAE1"/>
<circle cx="285" cy="350" r="1" fill="#27AAE1"/>
<circle cx="307" cy="350" r="1" fill="#27AAE1"/>
<circle cx="329" cy="350" r="1" fill="#27AAE1"/>
<circle cx="351" cy="350" r="1" fill="#27AAE1"/>
<circle cx="373" cy="350" r="1" fill="#27AAE1"/>
<circle cx="395" cy="350" r="1" fill="#27AAE1"/>
<circle cx="417" cy="350" r="1" fill="#27AAE1"/>
<circle cx="439" cy="350" r="1" fill="#27AAE1"/>
<circle cx="461" cy="350" r="1" fill="#27AAE1"/>
<circle cx="483" cy="350" r="1" fill="#27AAE1"/>
<circle cx="505" cy="350" r="1" fill="#27AAE1"/>
<circle cx="527" cy="350" r="1" fill="#27AAE1"/>
<circle cx="549" cy="350" r="1" fill="#27AAE1"/>
<circle cx="571" cy="350" r="1" fill="#27AAE1"/>
<circle cx="593" cy="350" r="1" fill="#27AAE1"/>
<circle cx="615" cy="350" r="1" fill="#27AAE1"/>
<circle cx="637" cy="350" r="1" fill="#27AAE1"/>
<circle cx="659" cy="350" r="1" fill="#27AAE1"/>
<circle cx="681" cy="350" r="1" fill="#27AAE1"/>
<circle cx="703" cy="350" r="1" fill="#27AAE1"/>
<circle cx="725" cy="350" r="1" fill="#27AAE1"/>
<circle cx="747" cy="350" r="1" fill="#27AAE1"/>
<circle cx="769" cy="350" r="1" fill="#27AAE1"/>
<circle cx="791" cy="350" r="1" fill="#27AAE1"/>
<circle cx="813" cy="350" r="1" fill="#27AAE1"/>
<circle cx="835" cy="350" r="1" fill="#27AAE1"/>
<circle cx="857" cy="350" r="1" fill="#27AAE1"/>
<circle cx="879" cy="350" r="1" fill="#27AAE1"/>
<circle cx="901" cy="350" r="1" fill="#27AAE1"/>
<circle cx="923" cy="350" r="1" fill="#27AAE1"/>
<circle cx="945" cy="350" r="1" fill="#27AAE1"/>
<circle cx="967" cy="350" r="1" fill="#27AAE1"/>
<circle cx="989" cy="350" r="1" fill="#27AAE1"/>
<circle cx="1011" cy="350" r="1" fill="#27AAE1"/>
<circle cx="21" cy="372" r="1" fill="#27AAE1"/>
<circle cx="43" cy="372" r="1" fill="#27AAE1"/>
<circle cx="65" cy="372" r="1" fill="#27AAE1"/>
<circle cx="87" cy="372" r="1" fill="#27AAE1"/>
<circle cx="109" cy="372" r="1" fill="#27AAE1"/>
<circle cx="131" cy="372" r="1" fill="#27AAE1"/>
<circle cx="153" cy="372" r="1" fill="#27AAE1"/>
<circle cx="175" cy="372" r="1" fill="#27AAE1"/>
<circle cx="197" cy="372" r="1" fill="#27AAE1"/>
<circle cx="219" cy="372" r="1" fill="#27AAE1"/>
<circle cx="241" cy="372" r="1" fill="#27AAE1"/>
<circle cx="263" cy="372" r="1" fill="#27AAE1"/>
<circle cx="285" cy="372" r="1" fill="#27AAE1"/>
<circle cx="307" cy="372" r="1" fill="#27AAE1"/>
<circle cx="329" cy="372" r="1" fill="#27AAE1"/>
<circle cx="351" cy="372" r="1" fill="#27AAE1"/>
<circle cx="373" cy="372" r="1" fill="#27AAE1"/>
<circle cx="395" cy="372" r="1" fill="#27AAE1"/>
<circle cx="417" cy="372" r="1" fill="#27AAE1"/>
<circle cx="439" cy="372" r="1" fill="#27AAE1"/>
<circle cx="461" cy="372" r="1" fill="#27AAE1"/>
<circle cx="483" cy="372" r="1" fill="#27AAE1"/>
<circle cx="505" cy="372" r="1" fill="#27AAE1"/>
<circle cx="527" cy="372" r="1" fill="#27AAE1"/>
<circle cx="549" cy="372" r="1" fill="#27AAE1"/>
<circle cx="571" cy="372" r="1" fill="#27AAE1"/>
<circle cx="593" cy="372" r="1" fill="#27AAE1"/>
<circle cx="615" cy="372" r="1" fill="#27AAE1"/>
<circle cx="637" cy="372" r="1" fill="#27AAE1"/>
<circle cx="659" cy="372" r="1" fill="#27AAE1"/>
<circle cx="681" cy="372" r="1" fill="#27AAE1"/>
<circle cx="703" cy="372" r="1" fill="#27AAE1"/>
<circle cx="725" cy="372" r="1" fill="#27AAE1"/>
<circle cx="747" cy="372" r="1" fill="#27AAE1"/>
<circle cx="769" cy="372" r="1" fill="#27AAE1"/>
<circle cx="791" cy="372" r="1" fill="#27AAE1"/>
<circle cx="813" cy="372" r="1" fill="#27AAE1"/>
<circle cx="835" cy="372" r="1" fill="#27AAE1"/>
<circle cx="857" cy="372" r="1" fill="#27AAE1"/>
<circle cx="879" cy="372" r="1" fill="#27AAE1"/>
<circle cx="901" cy="372" r="1" fill="#27AAE1"/>
<circle cx="923" cy="372" r="1" fill="#27AAE1"/>
<circle cx="945" cy="372" r="1" fill="#27AAE1"/>
<circle cx="967" cy="372" r="1" fill="#27AAE1"/>
<circle cx="989" cy="372" r="1" fill="#27AAE1"/>
<circle cx="1011" cy="372" r="1" fill="#27AAE1"/>
<circle cx="21" cy="394" r="1" fill="#27AAE1"/>
<circle cx="43" cy="394" r="1" fill="#27AAE1"/>
<circle cx="65" cy="394" r="1" fill="#27AAE1"/>
<circle cx="87" cy="394" r="1" fill="#27AAE1"/>
<circle cx="109" cy="394" r="1" fill="#27AAE1"/>
<circle cx="131" cy="394" r="1" fill="#27AAE1"/>
<circle cx="153" cy="394" r="1" fill="#27AAE1"/>
<circle cx="175" cy="394" r="1" fill="#27AAE1"/>
<circle cx="197" cy="394" r="1" fill="#27AAE1"/>
<circle cx="219" cy="394" r="1" fill="#27AAE1"/>
<circle cx="241" cy="394" r="1" fill="#27AAE1"/>
<circle cx="263" cy="394" r="1" fill="#27AAE1"/>
<circle cx="285" cy="394" r="1" fill="#27AAE1"/>
<circle cx="307" cy="394" r="1" fill="#27AAE1"/>
<circle cx="329" cy="394" r="1" fill="#27AAE1"/>
<circle cx="351" cy="394" r="1" fill="#27AAE1"/>
<circle cx="373" cy="394" r="1" fill="#27AAE1"/>
<circle cx="395" cy="394" r="1" fill="#27AAE1"/>
<circle cx="417" cy="394" r="1" fill="#27AAE1"/>
<circle cx="439" cy="394" r="1" fill="#27AAE1"/>
<circle cx="461" cy="394" r="1" fill="#27AAE1"/>
<circle cx="483" cy="394" r="1" fill="#27AAE1"/>
<circle cx="505" cy="394" r="1" fill="#27AAE1"/>
<circle cx="527" cy="394" r="1" fill="#27AAE1"/>
<circle cx="549" cy="394" r="1" fill="#27AAE1"/>
<circle cx="571" cy="394" r="1" fill="#27AAE1"/>
<circle cx="593" cy="394" r="1" fill="#27AAE1"/>
<circle cx="615" cy="394" r="1" fill="#27AAE1"/>
<circle cx="637" cy="394" r="1" fill="#27AAE1"/>
<circle cx="659" cy="394" r="1" fill="#27AAE1"/>
<circle cx="681" cy="394" r="1" fill="#27AAE1"/>
<circle cx="703" cy="394" r="1" fill="#27AAE1"/>
<circle cx="725" cy="394" r="1" fill="#27AAE1"/>
<circle cx="747" cy="394" r="1" fill="#27AAE1"/>
<circle cx="769" cy="394" r="1" fill="#27AAE1"/>
<circle cx="791" cy="394" r="1" fill="#27AAE1"/>
<circle cx="813" cy="394" r="1" fill="#27AAE1"/>
<circle cx="835" cy="394" r="1" fill="#27AAE1"/>
<circle cx="857" cy="394" r="1" fill="#27AAE1"/>
<circle cx="879" cy="394" r="1" fill="#27AAE1"/>
<circle cx="901" cy="394" r="1" fill="#27AAE1"/>
<circle cx="923" cy="394" r="1" fill="#27AAE1"/>
<circle cx="945" cy="394" r="1" fill="#27AAE1"/>
<circle cx="967" cy="394" r="1" fill="#27AAE1"/>
<circle cx="989" cy="394" r="1" fill="#27AAE1"/>
<circle cx="1011" cy="394" r="1" fill="#27AAE1"/>
<circle cx="21" cy="416" r="1" fill="#27AAE1"/>
<circle cx="43" cy="416" r="1" fill="#27AAE1"/>
<circle cx="65" cy="416" r="1" fill="#27AAE1"/>
<circle cx="87" cy="416" r="1" fill="#27AAE1"/>
<circle cx="109" cy="416" r="1" fill="#27AAE1"/>
<circle cx="131" cy="416" r="1" fill="#27AAE1"/>
<circle cx="153" cy="416" r="1" fill="#27AAE1"/>
<circle cx="175" cy="416" r="1" fill="#27AAE1"/>
<circle cx="197" cy="416" r="1" fill="#27AAE1"/>
<circle cx="219" cy="416" r="1" fill="#27AAE1"/>
<circle cx="241" cy="416" r="1" fill="#27AAE1"/>
<circle cx="263" cy="416" r="1" fill="#27AAE1"/>
<circle cx="285" cy="416" r="1" fill="#27AAE1"/>
<circle cx="307" cy="416" r="1" fill="#27AAE1"/>
<circle cx="329" cy="416" r="1" fill="#27AAE1"/>
<circle cx="351" cy="416" r="1" fill="#27AAE1"/>
<circle cx="373" cy="416" r="1" fill="#27AAE1"/>
<circle cx="395" cy="416" r="1" fill="#27AAE1"/>
<circle cx="417" cy="416" r="1" fill="#27AAE1"/>
<circle cx="439" cy="416" r="1" fill="#27AAE1"/>
<circle cx="461" cy="416" r="1" fill="#27AAE1"/>
<circle cx="483" cy="416" r="1" fill="#27AAE1"/>
<circle cx="505" cy="416" r="1" fill="#27AAE1"/>
<circle cx="527" cy="416" r="1" fill="#27AAE1"/>
<circle cx="549" cy="416" r="1" fill="#27AAE1"/>
<circle cx="571" cy="416" r="1" fill="#27AAE1"/>
<circle cx="593" cy="416" r="1" fill="#27AAE1"/>
<circle cx="615" cy="416" r="1" fill="#27AAE1"/>
<circle cx="637" cy="416" r="1" fill="#27AAE1"/>
<circle cx="659" cy="416" r="1" fill="#27AAE1"/>
<circle cx="681" cy="416" r="1" fill="#27AAE1"/>
<circle cx="703" cy="416" r="1" fill="#27AAE1"/>
<circle cx="725" cy="416" r="1" fill="#27AAE1"/>
<circle cx="747" cy="416" r="1" fill="#27AAE1"/>
<circle cx="769" cy="416" r="1" fill="#27AAE1"/>
<circle cx="791" cy="416" r="1" fill="#27AAE1"/>
<circle cx="813" cy="416" r="1" fill="#27AAE1"/>
<circle cx="835" cy="416" r="1" fill="#27AAE1"/>
<circle cx="857" cy="416" r="1" fill="#27AAE1"/>
<circle cx="879" cy="416" r="1" fill="#27AAE1"/>
<circle cx="901" cy="416" r="1" fill="#27AAE1"/>
<circle cx="923" cy="416" r="1" fill="#27AAE1"/>
<circle cx="945" cy="416" r="1" fill="#27AAE1"/>
<circle cx="967" cy="416" r="1" fill="#27AAE1"/>
<circle cx="989" cy="416" r="1" fill="#27AAE1"/>
<circle cx="1011" cy="416" r="1" fill="#27AAE1"/>
<circle cx="21" cy="438" r="1" fill="#27AAE1"/>
<circle cx="43" cy="438" r="1" fill="#27AAE1"/>
<circle cx="65" cy="438" r="1" fill="#27AAE1"/>
<circle cx="87" cy="438" r="1" fill="#27AAE1"/>
<circle cx="109" cy="438" r="1" fill="#27AAE1"/>
<circle cx="131" cy="438" r="1" fill="#27AAE1"/>
<circle cx="153" cy="438" r="1" fill="#27AAE1"/>
<circle cx="175" cy="438" r="1" fill="#27AAE1"/>
<circle cx="197" cy="438" r="1" fill="#27AAE1"/>
<circle cx="219" cy="438" r="1" fill="#27AAE1"/>
<circle cx="241" cy="438" r="1" fill="#27AAE1"/>
<circle cx="263" cy="438" r="1" fill="#27AAE1"/>
<circle cx="285" cy="438" r="1" fill="#27AAE1"/>
<circle cx="307" cy="438" r="1" fill="#27AAE1"/>
<circle cx="329" cy="438" r="1" fill="#27AAE1"/>
<circle cx="351" cy="438" r="1" fill="#27AAE1"/>
<circle cx="373" cy="438" r="1" fill="#27AAE1"/>
<circle cx="395" cy="438" r="1" fill="#27AAE1"/>
<circle cx="417" cy="438" r="1" fill="#27AAE1"/>
<circle cx="439" cy="438" r="1" fill="#27AAE1"/>
<circle cx="461" cy="438" r="1" fill="#27AAE1"/>
<circle cx="483" cy="438" r="1" fill="#27AAE1"/>
<circle cx="505" cy="438" r="1" fill="#27AAE1"/>
<circle cx="527" cy="438" r="1" fill="#27AAE1"/>
<circle cx="549" cy="438" r="1" fill="#27AAE1"/>
<circle cx="571" cy="438" r="1" fill="#27AAE1"/>
<circle cx="593" cy="438" r="1" fill="#27AAE1"/>
<circle cx="615" cy="438" r="1" fill="#27AAE1"/>
<circle cx="637" cy="438" r="1" fill="#27AAE1"/>
<circle cx="659" cy="438" r="1" fill="#27AAE1"/>
<circle cx="681" cy="438" r="1" fill="#27AAE1"/>
<circle cx="703" cy="438" r="1" fill="#27AAE1"/>
<circle cx="725" cy="438" r="1" fill="#27AAE1"/>
<circle cx="747" cy="438" r="1" fill="#27AAE1"/>
<circle cx="769" cy="438" r="1" fill="#27AAE1"/>
<circle cx="791" cy="438" r="1" fill="#27AAE1"/>
<circle cx="813" cy="438" r="1" fill="#27AAE1"/>
<circle cx="835" cy="438" r="1" fill="#27AAE1"/>
<circle cx="857" cy="438" r="1" fill="#27AAE1"/>
<circle cx="879" cy="438" r="1" fill="#27AAE1"/>
<circle cx="901" cy="438" r="1" fill="#27AAE1"/>
<circle cx="923" cy="438" r="1" fill="#27AAE1"/>
<circle cx="945" cy="438" r="1" fill="#27AAE1"/>
<circle cx="967" cy="438" r="1" fill="#27AAE1"/>
<circle cx="989" cy="438" r="1" fill="#27AAE1"/>
<circle cx="1011" cy="438" r="1" fill="#27AAE1"/>
<circle cx="21" cy="460" r="1" fill="#27AAE1"/>
<circle cx="43" cy="460" r="1" fill="#27AAE1"/>
<circle cx="65" cy="460" r="1" fill="#27AAE1"/>
<circle cx="87" cy="460" r="1" fill="#27AAE1"/>
<circle cx="109" cy="460" r="1" fill="#27AAE1"/>
<circle cx="131" cy="460" r="1" fill="#27AAE1"/>
<circle cx="153" cy="460" r="1" fill="#27AAE1"/>
<circle cx="175" cy="460" r="1" fill="#27AAE1"/>
<circle cx="197" cy="460" r="1" fill="#27AAE1"/>
<circle cx="219" cy="460" r="1" fill="#27AAE1"/>
<circle cx="241" cy="460" r="1" fill="#27AAE1"/>
<circle cx="263" cy="460" r="1" fill="#27AAE1"/>
<circle cx="285" cy="460" r="1" fill="#27AAE1"/>
<circle cx="307" cy="460" r="1" fill="#27AAE1"/>
<circle cx="329" cy="460" r="1" fill="#27AAE1"/>
<circle cx="351" cy="460" r="1" fill="#27AAE1"/>
<circle cx="373" cy="460" r="1" fill="#27AAE1"/>
<circle cx="395" cy="460" r="1" fill="#27AAE1"/>
<circle cx="417" cy="460" r="1" fill="#27AAE1"/>
<circle cx="439" cy="460" r="1" fill="#27AAE1"/>
<circle cx="461" cy="460" r="1" fill="#27AAE1"/>
<circle cx="483" cy="460" r="1" fill="#27AAE1"/>
<circle cx="505" cy="460" r="1" fill="#27AAE1"/>
<circle cx="527" cy="460" r="1" fill="#27AAE1"/>
<circle cx="549" cy="460" r="1" fill="#27AAE1"/>
<circle cx="571" cy="460" r="1" fill="#27AAE1"/>
<circle cx="593" cy="460" r="1" fill="#27AAE1"/>
<circle cx="615" cy="460" r="1" fill="#27AAE1"/>
<circle cx="637" cy="460" r="1" fill="#27AAE1"/>
<circle cx="659" cy="460" r="1" fill="#27AAE1"/>
<circle cx="681" cy="460" r="1" fill="#27AAE1"/>
<circle cx="703" cy="460" r="1" fill="#27AAE1"/>
<circle cx="725" cy="460" r="1" fill="#27AAE1"/>
<circle cx="747" cy="460" r="1" fill="#27AAE1"/>
<circle cx="769" cy="460" r="1" fill="#27AAE1"/>
<circle cx="791" cy="460" r="1" fill="#27AAE1"/>
<circle cx="813" cy="460" r="1" fill="#27AAE1"/>
<circle cx="835" cy="460" r="1" fill="#27AAE1"/>
<circle cx="857" cy="460" r="1" fill="#27AAE1"/>
<circle cx="879" cy="460" r="1" fill="#27AAE1"/>
<circle cx="901" cy="460" r="1" fill="#27AAE1"/>
<circle cx="923" cy="460" r="1" fill="#27AAE1"/>
<circle cx="945" cy="460" r="1" fill="#27AAE1"/>
<circle cx="967" cy="460" r="1" fill="#27AAE1"/>
<circle cx="989" cy="460" r="1" fill="#27AAE1"/>
<circle cx="1011" cy="460" r="1" fill="#27AAE1"/>
</g>
</svg>
