<svg width="116" height="31" viewBox="0 0 116 31" fill="none" xmlns="http://www.w3.org/2000/svg">
<path d="M7.60656 0.683594H108.393C112.318 0.683594 115.5 3.86531 115.5 7.79015V23.0033C115.5 26.9281 112.318 30.1098 108.393 30.1098H7.60656C3.68171 30.1098 0.5 26.9281 0.5 23.0033V7.79015C0.5 3.86531 3.68171 0.683594 7.60656 0.683594Z" stroke="#00093C"/>
<path fill-rule="evenodd" clip-rule="evenodd" d="M64.5677 7.78906C64.5306 10.7493 64.3286 12.4131 63.2185 13.5234C62.1084 14.6337 60.4449 14.8357 57.485 14.8725V15.3102C60.4449 15.347 62.1084 15.549 63.2185 16.6593C64.3286 17.7696 64.5306 19.4334 64.5677 22.3937H65.0051C65.0422 19.4334 65.2442 17.7696 66.3543 16.6593C67.4644 15.549 69.1278 15.3469 72.0882 15.3102V14.8725C69.1278 14.8357 67.4644 14.6337 66.3543 13.5234C65.2442 12.4131 65.0422 10.7493 65.0051 7.78906H64.5677Z" fill="#00093C"/>
<path d="M14.9032 20.5688H16.8174V9.57275H14.0331C11.233 9.57275 9.76165 11.0125 9.76165 13.1326C9.76165 14.8255 10.5685 15.8223 12.0081 16.8507L9.50854 20.5688H11.581L14.3653 16.4077L13.4003 15.759C12.2296 14.9679 11.6601 14.3509 11.6601 13.0219C11.6601 11.8511 12.4827 11.06 14.0489 11.06H14.9032V20.5688ZM51.8115 20.727C52.6815 20.727 53.2985 20.5688 53.7573 20.2365V18.7018C53.2829 19.0341 52.7133 19.2398 51.9222 19.2398C50.5773 19.2398 50.0239 18.1955 50.0239 16.5501C50.0239 14.8255 50.7042 13.9395 51.9379 13.9395C52.6658 13.9395 53.3775 14.1926 53.7573 14.43V12.832C53.3618 12.6105 52.6658 12.4523 51.7325 12.4523C49.3279 12.4523 48.0781 14.1769 48.0781 16.5976C48.0781 19.2556 49.2961 20.727 51.8115 20.727ZM40.0413 20.0309V18.4961C39.4559 18.8917 38.4751 19.2398 37.5575 19.2398C36.1812 19.2398 35.6591 18.5911 35.58 17.2621H40.1204V16.2653C40.1204 13.4965 38.9023 12.4523 37.0197 12.4523C34.7258 12.4523 33.6342 14.2085 33.6342 16.6134C33.6342 19.3822 34.9947 20.727 37.3994 20.727C38.6017 20.727 39.4876 20.4106 40.0413 20.0309ZM22.7974 12.6105V15.759H20.282V12.6105H18.3994V20.5688H20.282V17.2462H22.7974V20.5688H24.68V12.6105H22.7974ZM33.1754 19.0816H32.3369V12.6105H26.8474V13.2908C26.8474 15.2369 26.7208 17.7525 26.0564 19.0816H25.471V22.3883H27.2112V20.5688H31.4352V22.3883H33.1754V19.0816ZM46.0529 20.5688H48.1888L45.167 16.2811L47.8247 12.6105H45.9264L43.2686 16.2811V12.6105H41.386V20.5688H43.2686V16.6608L46.0529 20.5688ZM36.988 13.9395C37.9214 13.9395 38.2062 14.7148 38.2062 15.7115V15.8697H35.58C35.6275 14.604 36.0863 13.9395 36.988 13.9395ZM30.4543 19.0816H27.7966C28.3186 17.8791 28.461 15.7115 28.461 14.3351V14.0978H30.4543V19.0816Z" fill="#00093C"/>
<path d="M77.1185 22.8615V20.5673H83.0036V22.8615H84.7917V19.0801H83.7633V9.57129H77.0396L76.8499 15.0298C76.7867 16.8018 76.5965 18.2415 76.0902 19.0801H75.331V22.8615H77.1185ZM78.5267 15.2829L78.6689 11.0585H81.8489V19.0801H77.8939C78.2262 18.3365 78.4635 17.0549 78.5267 15.2829Z" fill="#00093C"/>
<path d="M88.0033 19.2391C87.0382 19.2391 86.0893 18.891 85.5829 18.5113V20.046C85.9466 20.3466 86.8642 20.7264 88.2248 20.7264C90.2339 20.7264 91.294 19.8245 91.294 18.2266C91.294 17.293 90.7088 16.6602 89.6643 16.4387C90.6456 16.1223 91.0568 15.4261 91.0568 14.5401C91.0568 13.1952 89.9967 12.4517 88.288 12.4517C87.0543 12.4517 86.2476 12.8314 85.7888 13.1161V14.6509C86.2946 14.3186 86.9911 13.9389 88.0194 13.9389C88.7154 13.9389 89.1585 14.2711 89.1585 14.8565C89.1585 15.4736 88.7787 15.8058 88.0033 15.8058H86.8171V17.2298H88.0033C88.9683 17.2298 89.3482 17.5146 89.3482 18.2107C89.3482 18.8436 88.8894 19.2391 88.0033 19.2391Z" fill="#00093C"/>
<path d="M98.4172 20.0302V18.4955C97.8315 18.891 96.8508 19.2391 95.9332 19.2391C94.5569 19.2391 94.0349 18.5904 93.956 17.2614H98.4962V16.2646C98.4962 13.4959 97.2781 12.4517 95.3955 12.4517C93.1017 12.4517 92.0101 14.2078 92.0101 16.6127C92.0101 19.3815 93.3703 20.7264 95.7754 20.7264C96.9777 20.7264 97.8634 20.4099 98.4172 20.0302ZM95.3637 13.9389C96.2974 13.9389 96.5822 14.7141 96.5822 15.7109V15.8691H93.956C94.0035 14.6034 94.4623 13.9389 95.3637 13.9389Z" fill="#00093C"/>
<path d="M104.155 12.6104V15.7588H101.64V12.6104H99.7574V20.5686H101.64V17.2461H104.155V20.5686H106.038V12.6104H104.155Z" fill="#00093C"/>
</svg>
