<svg width="57" height="41" viewBox="0 0 57 41" fill="none" xmlns="http://www.w3.org/2000/svg">
<path d="M9.38625 40.2684C4.20959 40.2684 0 36.0589 0 30.8822C0 25.7055 4.20959 21.496 9.38625 21.496C14.5629 21.496 18.7725 25.7055 18.7725 30.8822C18.7725 36.0873 14.5629 40.2684 9.38625 40.2684Z" fill="white"/>
<path d="M9.38625 40.2684C4.20959 40.2684 0 36.0588 0 30.8822C0 25.7055 4.20959 21.4959 9.38625 21.4959C14.5629 21.4959 18.7725 25.7055 18.7725 30.8822C18.7725 36.0873 14.5629 40.2684 9.38625 40.2684Z" fill="white"/>
<path d="M31.572 1.04517L21.3893 17.6844C21.1049 18.168 21.4178 18.7653 21.9582 18.7653H32.1409H42.3235C42.8639 18.7653 43.1768 18.1395 42.8924 17.6844L32.7097 1.04517C32.4253 0.618527 31.828 0.618527 31.572 1.04517Z" fill="white"/>
<path d="M18.5733 3.86116L14.9041 0.191991C14.6481 -0.0639971 14.193 -0.0639971 13.9371 0.191991L9.89813 4.23092C9.64214 4.48691 9.18705 4.48691 8.93106 4.23092L4.89213 0.191991C4.63614 -0.0639971 4.18105 -0.0639971 3.92506 0.191991L0.255895 3.86116C-9.33334e-05 4.11715 -9.33334e-05 4.57224 0.255895 4.82823L4.29482 8.86716C4.55081 9.12315 4.55081 9.57824 4.29482 9.83422L0.255895 13.8732C-9.33334e-05 14.1291 -9.33334e-05 14.5842 0.255895 14.8402L3.92506 18.5094C4.18105 18.7654 4.63614 18.7654 4.89213 18.5094L8.93106 14.4705C9.18705 14.2145 9.64214 14.2145 9.89813 14.4705L13.9371 18.5094C14.193 18.7654 14.6481 18.7654 14.9041 18.5094L18.5733 14.8402C18.8293 14.5842 18.8293 14.1291 18.5733 13.8732L14.5344 9.83422C14.2784 9.57824 14.2784 9.12315 14.5344 8.86716L18.5733 4.82823C18.8577 4.57224 18.8577 4.14559 18.5733 3.86116Z" fill="white"/>
<path d="M23.181 27.9808V29.1754H25.2573V30.0003H23.181V31.6215H22.157V27.1559H25.5133V27.9808H23.181Z" fill="white"/>
<path d="M26.9073 31.1664C26.566 30.8251 26.3669 30.3131 26.3669 29.6589V27.1559H27.3908V29.6021C27.3908 30.3985 27.7322 30.7967 28.3863 30.7967C28.6992 30.7967 28.9552 30.7113 29.1259 30.5122C29.2965 30.3131 29.3819 30.0287 29.3819 29.6021V27.1559H30.4058V29.6589C30.4058 30.3131 30.2352 30.8251 29.8654 31.1664C29.5241 31.5078 29.0121 31.7069 28.3863 31.7069C27.7606 31.7069 27.2486 31.5078 26.9073 31.1664Z" fill="white"/>
<path d="M32.4535 28.0092H31.0314V27.1559H34.8996V28.0092H33.4775V31.6215H32.4535V28.0092Z" fill="white"/>
<path d="M36.0657 31.1664C35.7244 30.8251 35.5253 30.3131 35.5253 29.6589V27.1559H36.5493V29.6021C36.5493 30.3985 36.8906 30.7967 37.5448 30.7967C37.8577 30.7967 38.1137 30.7113 38.2843 30.5122C38.455 30.3131 38.5403 30.0287 38.5403 29.6021V27.1559H39.5643V29.6589C39.5643 30.3131 39.3936 30.8251 39.0238 31.1664C38.6825 31.5078 38.1705 31.7069 37.5448 31.7069C36.919 31.7069 36.4355 31.5078 36.0657 31.1664Z" fill="white"/>
<path d="M43.6033 31.6218L42.75 30.3703H42.6931H41.7829V31.6218H40.759V27.1846H42.6931C43.0913 27.1846 43.4326 27.2415 43.7171 27.3837C44.0015 27.526 44.229 27.6966 44.3997 27.9526C44.5419 28.1801 44.6272 28.493 44.6272 28.8059C44.6272 29.1472 44.5419 29.4316 44.3997 29.6592C44.229 29.8867 44.0015 30.0858 43.7171 30.1996L44.7126 31.6218H43.6033ZM43.3473 28.2086C43.1766 28.0664 42.9491 28.0095 42.6362 28.0095H41.7829V29.5739H42.6362C42.9491 29.5739 43.1766 29.517 43.3473 29.3748C43.518 29.2325 43.5748 29.0619 43.5748 28.8059C43.6033 28.5215 43.518 28.3508 43.3473 28.2086Z" fill="white"/>
<path d="M49.0929 30.7967V31.6215H45.6513V27.1559H49.0076V27.9808H46.6753V28.9479H48.7232V29.7727H46.6753V30.7967H49.0929Z" fill="white"/>
<path d="M25.0868 38.9031H23.0105L22.6123 39.8702H21.5599L23.5509 35.4331H24.5749L26.5659 39.8702H25.485L25.0868 38.9031ZM24.774 38.1352L24.0629 36.4286L23.3518 38.1352H24.774Z" fill="white"/>
<path d="M28.0449 39.6425C27.6752 39.4434 27.3908 39.159 27.1917 38.8177C26.9925 38.4764 26.8788 38.0782 26.8788 37.6231C26.8788 37.1964 26.9925 36.7982 27.1917 36.4285C27.3908 36.0871 27.7036 35.8027 28.0449 35.6036C28.4147 35.4045 28.8129 35.3192 29.268 35.3192C29.6662 35.3192 30.0075 35.3761 30.3204 35.5183C30.6333 35.6605 30.8893 35.8596 31.1168 36.1156L30.4626 36.7129C30.1497 36.3716 29.78 36.2009 29.3533 36.2009C29.0689 36.2009 28.8414 36.2578 28.6138 36.3716C28.3863 36.4854 28.2156 36.656 28.1018 36.8836C27.9881 37.1111 27.9312 37.3387 27.9312 37.6231C27.9312 37.9075 27.9881 38.1351 28.1018 38.3626C28.2156 38.5902 28.3863 38.7608 28.6138 38.8746C28.8414 38.9884 29.0689 39.0452 29.3533 39.0452C29.8084 39.0452 30.1782 38.8746 30.4626 38.5048L31.1168 39.1021C30.9177 39.3581 30.6333 39.5572 30.3204 39.6994C30.0075 39.8416 29.6662 39.8985 29.268 39.8985C28.8414 39.927 28.4147 39.8417 28.0449 39.6425Z" fill="white"/>
<path d="M34.8428 38.9031H32.7664L32.3682 39.8702H31.3158L33.3068 35.4331H34.3308L36.3218 39.8702H35.241L34.8428 38.9031ZM34.5299 38.1352L33.8188 36.4286L33.1077 38.1352H34.5299Z" fill="white"/>
<path d="M36.9761 35.4045H38.9956C39.4791 35.4045 39.9058 35.4898 40.2755 35.6889C40.6453 35.8596 40.9297 36.144 41.1288 36.4569C41.3279 36.7982 41.4417 37.168 41.4417 37.6231C41.4417 38.0782 41.3279 38.4479 41.1288 38.7893C40.9297 39.1306 40.6453 39.3866 40.2755 39.5572C39.9058 39.7279 39.4791 39.8416 38.9956 39.8416H36.9761V35.4045ZM38.9387 39.0168C39.3938 39.0168 39.7351 38.903 39.9911 38.647C40.2471 38.391 40.3893 38.0497 40.3893 37.6515C40.3893 37.2249 40.2471 36.8836 39.9911 36.656C39.7351 36.4 39.3654 36.2863 38.9387 36.2863H38.0001V39.0452H38.9387V39.0168Z" fill="white"/>
<path d="M45.8503 39.0452V39.8701H42.4086V35.4045H45.7649V36.2294H43.4326V37.1964H45.5089V37.9928H43.4326V39.0452H45.8503Z" fill="white"/>
<path d="M50.9132 39.8701V37.1964L49.6048 39.3866H49.1497L47.8413 37.2533V39.8701H46.8743V35.4045H47.7276L49.3773 38.1635L51.027 35.4045H51.8803V39.8701H50.9132Z" fill="white"/>
<path d="M55.265 38.2773V39.8701H54.241V38.2773L52.506 35.4045H53.6153L54.8099 37.3955L55.9761 35.4045H57L55.265 38.2773Z" fill="white"/>
</svg>
