<svg width="84" height="59" viewBox="0 0 84 59" fill="none" xmlns="http://www.w3.org/2000/svg">
<path d="M13.6694 58.6439C6.13054 58.6439 0 52.5134 0 44.9745C0 37.4356 6.13054 31.3051 13.6694 31.3051C21.2083 31.3051 27.3389 37.4356 27.3389 44.9745C27.3389 52.5548 21.2083 58.6439 13.6694 58.6439Z" fill="white"/>
<path d="M13.6694 58.6439C6.13054 58.6439 0 52.5134 0 44.9745C0 37.4356 6.13054 31.3051 13.6694 31.3051C21.2083 31.3051 27.3389 37.4356 27.3389 44.9745C27.3389 52.5548 21.2083 58.6439 13.6694 58.6439Z" fill="white"/>
<path d="M45.9791 1.52203L31.1498 25.7542C30.7356 26.4584 31.1912 27.3283 31.9783 27.3283H46.8075H61.6368C62.4238 27.3283 62.8795 26.417 62.4652 25.7542L47.636 1.52203C47.2218 0.900696 46.3519 0.900696 45.9791 1.52203Z" fill="white"/>
<path d="M27.049 5.62311L21.7055 0.279602C21.3327 -0.0932007 20.6699 -0.0932007 20.2971 0.279602L14.4151 6.1616C14.0423 6.5344 13.3795 6.5344 13.0067 6.1616L7.12473 0.279602C6.75193 -0.0932007 6.08917 -0.0932007 5.71637 0.279602L0.372864 5.62311C6.10128e-05 5.99591 6.10128e-05 6.65867 0.372864 7.03148L6.25486 12.9135C6.62766 13.2863 6.62766 13.949 6.25486 14.3218L0.372864 20.2038C6.10128e-05 20.5766 6.10128e-05 21.2394 0.372864 21.6122L5.71637 26.9557C6.08917 27.3285 6.75193 27.3285 7.12473 26.9557L13.0067 21.0737C13.3795 20.7009 14.0423 20.7009 14.4151 21.0737L20.2971 26.9557C20.6699 27.3285 21.3327 27.3285 21.7055 26.9557L27.049 21.6122C27.4218 21.2394 27.4218 20.5766 27.049 20.2038L21.167 14.3218C20.7942 13.949 20.7942 13.2863 21.167 12.9135L27.049 7.03148C27.4632 6.65867 27.4632 6.03733 27.049 5.62311Z" fill="white"/>
<path d="M33.7593 40.7492V42.489H36.7831V43.6902H33.7593V46.0513H32.2681V39.548H37.1559V40.7492H33.7593Z" fill="white"/>
<path d="M39.186 45.3886C38.6889 44.8915 38.3989 44.1459 38.3989 43.1932V39.548H39.8901V43.1103C39.8901 44.2701 40.3872 44.8501 41.3399 44.8501C41.7956 44.8501 42.1684 44.7258 42.4169 44.4358C42.6655 44.1459 42.7897 43.7317 42.7897 43.1103V39.548H44.2809V43.1932C44.2809 44.1459 44.0324 44.8915 43.4939 45.3886C42.9968 45.8856 42.2512 46.1756 41.3399 46.1756C40.4286 46.1756 39.683 45.8856 39.186 45.3886Z" fill="white"/>
<path d="M47.263 40.7906H45.1919V39.548H50.8254V40.7906H48.7542V46.0513H47.263V40.7906Z" fill="white"/>
<path d="M52.5234 45.3886C52.0263 44.8915 51.7363 44.1459 51.7363 43.1932V39.548H53.2275V43.1103C53.2275 44.2701 53.7246 44.8501 54.6773 44.8501C55.133 44.8501 55.5058 44.7258 55.7543 44.4358C56.0028 44.1459 56.1271 43.7317 56.1271 43.1103V39.548H57.6183V43.1932C57.6183 44.1459 57.3698 44.8915 56.8313 45.3886C56.3342 45.8856 55.5886 46.1756 54.6773 46.1756C53.766 46.1756 53.0618 45.8856 52.5234 45.3886Z" fill="white"/>
<path d="M63.5007 46.0516L62.258 44.2291H62.1751H60.8496V46.0516H59.3584V39.5897H62.1751C62.755 39.5897 63.2521 39.6726 63.6663 39.8797C64.0806 40.0868 64.4119 40.3353 64.6605 40.7081C64.8676 41.0395 64.9919 41.4952 64.9919 41.9508C64.9919 42.4479 64.8676 42.8621 64.6605 43.1935C64.4119 43.5249 64.0806 43.8148 63.6663 43.9805L65.1161 46.0516H63.5007ZM63.1279 41.0809C62.8793 40.8738 62.5479 40.791 62.0923 40.791H60.8496V43.0692H62.0923C62.5479 43.0692 62.8793 42.9864 63.1279 42.7793C63.3764 42.5721 63.4592 42.3236 63.4592 41.9508C63.5006 41.5366 63.3764 41.288 63.1279 41.0809Z" fill="white"/>
<path d="M71.4955 44.8501V46.0513H66.4834V39.548H71.3713V40.7492H67.9746V42.1576H70.957V43.3589H67.9746V44.8501H71.4955Z" fill="white"/>
<path d="M36.5348 56.6557H33.511L32.9311 58.0641H31.3984L34.298 51.6022H35.7892L38.6888 58.0641H37.1147L36.5348 56.6557ZM36.0792 55.5373L35.0436 53.052L34.0081 55.5373H36.0792Z" fill="white"/>
<path d="M40.8424 57.7326C40.3039 57.4427 39.8896 57.0284 39.5997 56.5314C39.3097 56.0343 39.144 55.4544 39.144 54.7916C39.144 54.1703 39.3097 53.5904 39.5997 53.0519C39.8896 52.5548 40.3453 52.1406 40.8424 51.8506C41.3808 51.5607 41.9608 51.4364 42.6235 51.4364C43.2034 51.4364 43.7005 51.5193 44.1562 51.7264C44.6118 51.9335 44.9846 52.2234 45.316 52.5962L44.3633 53.4661C43.9076 52.969 43.3691 52.7205 42.7478 52.7205C42.3336 52.7205 42.0022 52.8033 41.6708 52.969C41.3394 53.1347 41.0909 53.3833 40.9252 53.7146C40.7595 54.046 40.6767 54.3774 40.6767 54.7916C40.6767 55.2059 40.7595 55.5372 40.9252 55.8686C41.0909 56.2 41.3394 56.4485 41.6708 56.6142C42.0022 56.7799 42.3336 56.8628 42.7478 56.8628C43.4106 56.8628 43.949 56.6142 44.3633 56.0757L45.316 56.9456C45.026 57.3184 44.6118 57.6084 44.1562 57.8155C43.7005 58.0226 43.2034 58.1054 42.6235 58.1054C42.0022 58.1469 41.3808 58.0226 40.8424 57.7326Z" fill="white"/>
<path d="M50.7424 56.6557H47.7185L47.1386 58.0641H45.606L48.5055 51.6022H49.9967L52.8963 58.0641H51.3223L50.7424 56.6557ZM50.2867 55.5373L49.2511 53.052L48.2156 55.5373H50.2867Z" fill="white"/>
<path d="M53.8491 51.5605H56.7901C57.4943 51.5605 58.1156 51.6848 58.6541 51.9748C59.1926 52.2233 59.6068 52.6375 59.8968 53.0932C60.1868 53.5903 60.3525 54.1288 60.3525 54.7915C60.3525 55.4543 60.1868 55.9928 59.8968 56.4898C59.6068 56.9869 59.1926 57.3597 58.6541 57.6082C58.1156 57.8568 57.4943 58.0225 56.7901 58.0225H53.8491V51.5605ZM56.7073 56.8212C57.37 56.8212 57.8671 56.6555 58.2399 56.2827C58.6127 55.9099 58.8198 55.4129 58.8198 54.8329C58.8198 54.2116 58.6127 53.7145 58.2399 53.3831C57.8671 53.0103 57.3286 52.8446 56.7073 52.8446H55.3403V56.8626H56.7073V56.8212Z" fill="white"/>
<path d="M66.7729 56.8626V58.0639H61.7607V51.5605H66.6486V52.7618H63.252V54.1702H66.2758V55.33H63.252V56.8626H66.7729Z" fill="white"/>
<path d="M74.1462 58.0639V54.1702L72.2407 57.3597H71.578L69.6725 54.253V58.0639H68.2642V51.5605H69.5068L71.9093 55.5785L74.3119 51.5605H75.5545V58.0639H74.1462Z" fill="white"/>
<path d="M80.4838 55.7442V58.0639H78.9926V55.7442L76.4658 51.5605H78.0813L79.8211 54.4601L81.5194 51.5605H83.0106L80.4838 55.7442Z" fill="white"/>
</svg>
