<svg width="20" height="12" viewBox="0 0 20 12" fill="none" xmlns="http://www.w3.org/2000/svg">
<path d="M19.1602 0.855469C19.2656 0.433594 19.1602 0.0820312 18.5273 0.0820312H16.4531C15.9258 0.0820312 15.6797 0.363281 15.5391 0.679688C15.5391 0.679688 14.4844 3.24609 13.0078 4.93359C12.5156 5.39062 12.3047 5.56641 12.0234 5.56641C11.918 5.56641 11.707 5.39062 11.707 4.96875V0.855469C11.707 0.328125 11.5664 0.0820312 11.1094 0.0820312H7.875C7.52344 0.0820312 7.34766 0.328125 7.34766 0.574219C7.34766 1.06641 8.08594 1.17188 8.15625 2.57812V5.63672C8.15625 6.30469 8.05078 6.44531 7.76953 6.44531C7.06641 6.44531 5.37891 3.84375 4.35938 0.890625C4.14844 0.328125 3.9375 0.0820312 3.41016 0.0820312H1.33594C0.773438 0.0820312 0.632812 0.363281 0.632812 0.679688C0.632812 1.24219 1.33594 3.94922 3.90234 7.57031C5.625 10.0312 8.05078 11.332 10.2305 11.332C11.5312 11.332 11.707 11.0508 11.707 10.5586C11.707 8.20312 11.6016 7.95703 12.2344 7.95703C12.5508 7.95703 13.0781 8.13281 14.3086 9.32812C15.7148 10.7344 15.9609 11.332 16.7344 11.332H18.8086C19.4062 11.332 19.6875 11.0508 19.5117 10.4531C19.125 9.25781 16.4883 6.72656 16.3477 6.55078C16.0312 6.16406 16.1367 5.98828 16.3477 5.63672C16.3477 5.63672 18.8789 2.05078 19.1602 0.855469Z" fill="white"/>
</svg>
