<svg width="116" height="31" viewBox="0 0 116 31" fill="none" xmlns="http://www.w3.org/2000/svg">
<path d="M7.60656 0.5H108.393C112.318 0.5 115.5 3.68171 115.5 7.60656V22.8197C115.5 26.7445 112.318 29.9262 108.393 29.9262H7.60656C3.68171 29.9262 0.5 26.7445 0.5 22.8197V7.60656C0.5 3.68171 3.68171 0.5 7.60656 0.5Z" stroke="white"/>
<path fill-rule="evenodd" clip-rule="evenodd" d="M64.5678 7.60547C64.5307 10.5657 64.3286 12.2295 63.2185 13.3398C62.1085 14.4501 60.445 14.6521 57.4851 14.6889V15.1266C60.445 15.1634 62.1085 15.3654 63.2185 16.4757C64.3286 17.586 64.5307 19.2498 64.5678 22.2101H65.0051C65.0422 19.2498 65.2443 17.586 66.3544 16.4757C67.4644 15.3654 69.1279 15.1633 72.0883 15.1266V14.6889C69.1279 14.6521 67.4644 14.4501 66.3544 13.3398C65.2443 12.2295 65.0422 10.5657 65.0051 7.60547H64.5678Z" fill="white"/>
<path d="M14.9032 20.3857H16.8174V9.38965H14.0331C11.233 9.38965 9.76165 10.8294 9.76165 12.9495C9.76165 14.6424 10.5685 15.6392 12.0081 16.6676L9.50854 20.3857H11.581L14.3653 16.2246L13.4003 15.5759C12.2296 14.7848 11.6601 14.1678 11.6601 12.8387C11.6601 11.668 12.4827 10.8769 14.0489 10.8769H14.9032V20.3857ZM51.8115 20.5439C52.6815 20.5439 53.2985 20.3857 53.7573 20.0534V18.5187C53.2829 18.851 52.7133 19.0567 51.9222 19.0567C50.5773 19.0567 50.0239 18.0124 50.0239 16.367C50.0239 14.6424 50.7042 13.7564 51.9379 13.7564C52.6658 13.7564 53.3775 14.0095 53.7573 14.2469V12.6489C53.3618 12.4274 52.6658 12.2692 51.7325 12.2692C49.3279 12.2692 48.0781 13.9938 48.0781 16.4144C48.0781 19.0725 49.2961 20.5439 51.8115 20.5439ZM40.0413 19.8478V18.313C39.4559 18.7086 38.4751 19.0567 37.5575 19.0567C36.1812 19.0567 35.6591 18.408 35.58 17.079H40.1204V16.0822C40.1204 13.3134 38.9023 12.2692 37.0197 12.2692C34.7258 12.2692 33.6342 14.0254 33.6342 16.4303C33.6342 19.1991 34.9947 20.5439 37.3994 20.5439C38.6017 20.5439 39.4876 20.2275 40.0413 19.8478ZM22.7974 12.4274V15.5759H20.282V12.4274H18.3994V20.3857H20.282V17.0631H22.7974V20.3857H24.68V12.4274H22.7974ZM33.1754 18.8985H32.3369V12.4274H26.8474V13.1077C26.8474 15.0538 26.7208 17.5694 26.0564 18.8985H25.471V22.2052H27.2112V20.3857H31.4352V22.2052H33.1754V18.8985ZM46.0529 20.3857H48.1888L45.167 16.098L47.8247 12.4274H45.9264L43.2686 16.098V12.4274H41.386V20.3857H43.2686V16.4777L46.0529 20.3857ZM36.988 13.7564C37.9214 13.7564 38.2062 14.5317 38.2062 15.5284V15.6866H35.58C35.6275 14.4209 36.0863 13.7564 36.988 13.7564ZM30.4543 18.8985H27.7966C28.3186 17.696 28.461 15.5284 28.461 14.152V13.9146H30.4543V18.8985Z" fill="white"/>
<path d="M77.1186 22.6779V20.3837H83.0037V22.6779H84.7917V18.8965H83.7634V9.3877H77.0397L76.85 14.8462C76.7868 16.6182 76.5966 18.0579 76.0903 18.8965H75.3311V22.6779H77.1186ZM78.5268 15.0993L78.6689 10.8749H81.8489V18.8965H77.894C78.2263 18.1529 78.4635 16.8713 78.5268 15.0993Z" fill="white"/>
<path d="M88.0033 19.056C87.0382 19.056 86.0893 18.7079 85.583 18.3282V19.8629C85.9467 20.1635 86.8642 20.5433 88.2249 20.5433C90.2339 20.5433 91.2941 19.6414 91.2941 18.0435C91.2941 17.1099 90.7089 16.4771 89.6644 16.2556C90.6457 15.9391 91.0569 15.243 91.0569 14.357C91.0569 13.0121 89.9967 12.2686 88.2881 12.2686C87.0544 12.2686 86.2476 12.6483 85.7889 12.933V14.4678C86.2947 14.1355 86.9912 13.7558 88.0195 13.7558C88.7155 13.7558 89.1586 14.088 89.1586 14.6734C89.1586 15.2904 88.7787 15.6227 88.0033 15.6227H86.8172V17.0467H88.0033C88.9684 17.0467 89.3483 17.3315 89.3483 18.0276C89.3483 18.6605 88.8895 19.056 88.0033 19.056Z" fill="white"/>
<path d="M98.4174 19.8471V18.3124C97.8316 18.7079 96.8509 19.056 95.9333 19.056C94.557 19.056 94.035 18.4073 93.9561 17.0783H98.4963V16.0815C98.4963 13.3127 97.2783 12.2686 95.3956 12.2686C93.1018 12.2686 92.0103 14.0247 92.0103 16.4296C92.0103 19.1984 93.3704 20.5433 95.7755 20.5433C96.9778 20.5433 97.8635 20.2268 98.4174 19.8471ZM95.3638 13.7558C96.2975 13.7558 96.5823 14.531 96.5823 15.5278V15.686H93.9561C94.0036 14.4203 94.4624 13.7558 95.3638 13.7558Z" fill="white"/>
<path d="M104.155 12.4268V15.5753H101.64V12.4268H99.7573V20.385H101.64V17.0625H104.155V20.385H106.038V12.4268H104.155Z" fill="white"/>
</svg>
